<svg width="50" height="50" viewBox="0 0 50 50" fill="none" xmlns="http://www.w3.org/2000/svg">
<g clip-path="url(#clip0_600_48)">
<path d="M13.0284 40.0372H2.31576C1.74032 40.0372 1.54748 40.0372 1.54748 38.9946V36.5144C1.54748 36.3093 1.46599 36.1125 1.32094 35.9675C1.17589 35.8225 0.979168 35.741 0.77404 35.741C0.568911 35.741 0.372185 35.8225 0.227137 35.9675C0.0820892 36.1125 0.000602283 36.3093 0.000602283 36.5144V38.9946C-0.0576942 39.3239 -0.0404247 39.6623 0.0511078 39.984C0.14264 40.3057 0.306045 40.6025 0.528994 40.8518C0.751943 41.1012 1.02861 41.2967 1.33813 41.4235C1.64765 41.5503 1.98193 41.6052 2.31576 41.584H13.0284C13.2335 41.584 13.4302 41.5025 13.5753 41.3575C13.7203 41.2124 13.8018 41.0157 13.8018 40.8106C13.8018 40.6055 13.7203 40.4087 13.5753 40.2637C13.4302 40.1186 13.2335 40.0372 13.0284 40.0372ZM0.77404 34.0796C0.979168 34.0796 1.17589 33.9981 1.32094 33.8531C1.46599 33.708 1.54748 33.5113 1.54748 33.3062V7.73943L24.9569 7.77965V20.6754C24.9569 20.8806 25.0383 21.0773 25.1834 21.2223C25.3284 21.3674 25.5252 21.4489 25.7303 21.4489C25.9354 21.4489 26.1321 21.3674 26.2772 21.2223C26.4222 21.0773 26.5037 20.8806 26.5037 20.6754V7.77965C26.5076 7.36136 26.3452 6.95866 26.0522 6.66008C25.7592 6.36151 25.3597 6.19149 24.9414 6.1874H2.20335L5.74054 3.19678H28.2218C28.55 3.19678 28.8648 3.32716 29.0968 3.55923C29.3289 3.79131 29.4593 4.10607 29.4593 4.43428V20.1299C29.4593 20.335 29.5408 20.5318 29.6858 20.6768C29.8309 20.8219 30.0276 20.9033 30.2327 20.9033C30.4379 20.9033 30.6346 20.8219 30.7796 20.6768C30.9247 20.5318 31.0062 20.335 31.0062 20.1299V4.43428C31.0062 3.69582 30.7128 2.9876 30.1906 2.46543C29.6685 1.94326 28.9603 1.6499 28.2218 1.6499H5.45798C5.27525 1.64979 5.0984 1.71447 4.95885 1.83243L0.364634 5.72437C0.256023 5.83576 0.171125 5.96802 0.115071 6.11315C0.0432705 6.22848 0.00373901 6.36096 0.000602283 6.49678V33.3093C0.00142066 33.5139 0.0832687 33.7098 0.228228 33.8542C0.373187 33.9986 0.569446 34.0796 0.77404 34.0796Z" fill="#F6F6F6"/>
<path d="M27.9897 20.399C28.1949 20.399 28.3916 20.3176 28.5366 20.1725C28.6817 20.0275 28.7632 19.8307 28.7632 19.6256V6.22863C28.7624 5.61941 28.5203 5.03531 28.0899 4.60414C27.6595 4.17296 27.0758 3.92982 26.4666 3.92791L7.13477 3.8877C6.92964 3.8877 6.73291 3.96918 6.58786 4.11423C6.44281 4.25928 6.36133 4.456 6.36133 4.66113C6.36133 4.86626 6.44281 5.06299 6.58786 5.20804C6.73291 5.35308 6.92964 5.43457 7.13477 5.43457L26.4676 5.47479C26.6673 5.47533 26.8586 5.55496 26.9997 5.69625C27.1408 5.83753 27.2201 6.02896 27.2204 6.22863V19.6256C27.2204 19.83 27.3013 20.0261 27.4455 20.1711C27.5897 20.316 27.7853 20.3979 27.9897 20.399ZM38.6425 35.1232C38.4374 35.1232 38.2407 35.2047 38.0956 35.3498C37.9506 35.4948 37.8691 35.6915 37.8691 35.8967V42.3275C37.8706 42.4785 37.8352 42.6275 37.766 42.7617C37.3308 43.5919 35.2683 46.303 27.0183 46.303C18.7683 46.303 16.7058 43.5949 16.2655 42.7638C16.1964 42.6299 16.1611 42.4812 16.1623 42.3306V36.2246C16.1623 36.0195 16.0808 35.8227 15.9358 35.6777C15.7907 35.5326 15.594 35.4512 15.3889 35.4512C15.1838 35.4512 14.987 35.5326 14.842 35.6777C14.6969 35.8227 14.6155 36.0195 14.6155 36.2246V42.3275C14.6133 42.7288 14.7081 43.1247 14.8918 43.4815C15.5869 44.7943 18.1495 47.8499 27.0183 47.8499C35.887 47.8499 38.4487 44.7974 39.1386 43.4856C39.3238 43.1289 39.4194 42.7325 39.417 42.3306V35.8967C39.417 35.795 39.397 35.6943 39.358 35.6004C39.3191 35.5065 39.262 35.4212 39.1901 35.3494C39.1182 35.2776 39.0328 35.2206 38.9388 35.1818C38.8449 35.143 38.7442 35.1231 38.6425 35.1232Z" fill="#F6F6F6"/>
<path d="M48.9708 28.5027L28.5087 21.6676C28.3525 21.615 28.1834 21.615 28.0271 21.6676L4.97766 29.0575C4.82376 29.1082 4.68961 29.2058 4.59412 29.3367C4.49863 29.4676 4.44659 29.6252 4.44534 29.7872C4.44408 29.9492 4.49368 30.1076 4.58714 30.2399C4.6806 30.3723 4.81322 30.472 4.96632 30.525L26.5194 37.8098C26.5992 37.8367 26.6828 37.8506 26.7669 37.851C26.8555 37.8509 26.9434 37.8355 27.0268 37.8056L42.8472 32.1565V35.869C42.3139 36.03 41.8464 36.358 41.5136 36.8046C41.1807 37.2513 41 37.7931 40.9982 38.3501V39.9094C40.9982 40.6008 41.2729 41.2639 41.7618 41.7528C42.2507 42.2417 42.9138 42.5164 43.6052 42.5164C44.2966 42.5164 44.9597 42.2417 45.4486 41.7528C45.9375 41.2639 46.2122 40.6008 46.2122 39.9094V38.3481C46.2108 37.796 46.0339 37.2588 45.7071 36.8139C45.3802 36.369 44.9204 36.0395 44.3941 35.8731V31.6037L48.9842 29.965C49.1358 29.911 49.2668 29.8109 49.3589 29.6789C49.4509 29.5468 49.4995 29.3893 49.4978 29.2284C49.4961 29.0674 49.4442 28.911 49.3493 28.7809C49.2545 28.6508 49.1215 28.5536 48.9687 28.5027H48.9708ZM44.6612 39.9094C44.6612 40.1906 44.5495 40.4602 44.3507 40.659C44.1519 40.8578 43.8822 40.9695 43.6011 40.9695C43.3199 40.9695 43.0503 40.8578 42.8515 40.659C42.6526 40.4602 42.541 40.1906 42.541 39.9094V38.3481C42.541 38.2089 42.5684 38.071 42.6217 37.9424C42.6749 37.8138 42.753 37.6969 42.8515 37.5985C42.9499 37.5 43.0668 37.4219 43.1954 37.3686C43.324 37.3154 43.4619 37.288 43.6011 37.288C43.7403 37.288 43.8781 37.3154 44.0068 37.3686C44.1354 37.4219 44.2523 37.5 44.3507 37.5985C44.4491 37.6969 44.5272 37.8138 44.5805 37.9424C44.6338 38.071 44.6612 38.2089 44.6612 38.3481V39.9094ZM43.5103 30.2775L27.1 28.5069C26.9978 28.4934 26.8939 28.5005 26.7944 28.5278C26.6949 28.555 26.6019 28.6019 26.5208 28.6657C26.4397 28.7294 26.3722 28.8088 26.3223 28.899C26.2723 28.9893 26.2409 29.0886 26.2299 29.1911C26.2189 29.2937 26.2285 29.3974 26.2582 29.4962C26.2879 29.595 26.337 29.6868 26.4027 29.7663C26.4684 29.8459 26.5494 29.9114 26.6408 29.9592C26.7322 30.0069 26.8322 30.0359 26.935 30.0445L40.165 31.4717L26.7587 36.2608L7.68676 29.8135L28.2581 23.2135L46.3576 29.2597L43.5103 30.2775Z" fill="#F6F6F6"/>
</g>
<defs>
<clipPath id="clip0_600_48">
<rect width="49.5" height="49.5" fill="white"/>
</clipPath>
</defs>
</svg>
