<svg width="90" height="80" viewBox="0 0 90 80" fill="none" xmlns="http://www.w3.org/2000/svg">
<path d="M88.9453 27.5001H70.4883V15.0001H76.6406C77.4577 15.0001 77.8317 14.0913 77.2082 13.6224L65.7824 5.02868C65.455 4.78243 64.9745 4.78243 64.6471 5.02868L53.2213 13.6224C52.5976 14.0915 52.9724 15.0001 53.7891 15.0001H59.9414V27.5001H49.3945C49.3945 27.0685 49.0011 26.7188 48.5156 26.7188H41.4844C40.9989 26.7188 40.6055 27.0685 40.6055 27.5001H29.1797V22.0313H35.332C36.1491 22.0313 36.5231 21.1226 35.8996 20.6537L24.4738 12.0599C24.1464 11.8137 23.666 11.8137 23.3385 12.0599L11.9127 20.6537C11.6311 20.8654 11.5281 21.211 11.655 21.5188C11.7819 21.8267 12.1115 22.0313 12.4805 22.0313H18.6328V27.5001H1.05469C0.56918 27.5001 0.175781 27.8498 0.175781 28.2813C0.175781 29.6059 0.175781 72.6371 0.175781 73.5938C0.175781 74.0254 0.56918 74.3751 1.05469 74.3751H40.6055C40.6055 74.8066 40.9989 75.1563 41.4844 75.1563H48.5156C49.0011 75.1563 49.3945 74.8066 49.3945 74.3751H88.9453C89.4308 74.3751 89.8242 74.0254 89.8242 73.5938C89.8242 71.6579 89.8242 29.4215 89.8242 28.2813C89.8242 27.8498 89.4308 27.5001 88.9453 27.5001ZM40.6055 72.8126H1.93359V69.6876H40.6055V72.8126ZM40.6055 63.4376H1.93359V29.0626H18.6328V32.1876H11.0684C10.5829 32.1876 10.1895 32.5373 10.1895 32.9688C10.1895 34.8613 8.45736 36.4012 6.32812 36.4012C5.84262 36.4012 5.44922 36.7509 5.44922 37.1824V55.3177C5.44922 55.7493 5.84262 56.099 6.32812 56.099C8.45719 56.099 10.1895 57.6387 10.1895 59.5313C10.1895 59.9629 10.5829 60.3126 11.0684 60.3126H40.6055V63.4376ZM40.6055 34.024C34.7498 39.3484 34.7488 53.1492 40.6055 58.4776V58.7501H11.8786C11.5007 56.6204 9.60293 54.9335 7.20703 54.5976V37.9026C9.60293 37.5667 11.5007 35.8798 11.8786 33.7501H18.6328V37.6563C18.6328 38.0879 19.0262 38.4376 19.5117 38.4376H28.3008C28.7863 38.4376 29.1797 38.0879 29.1797 37.6563V33.7501H40.6055V34.024ZM40.6055 32.1876H29.1797V29.0626H40.6055V32.1876ZM47.6367 73.5938H42.3633V65.3126H47.6367V73.5938ZM47.6367 63.7501H42.3633C42.3633 61.9335 42.3633 29.446 42.3633 28.2813H47.6367C47.6367 29.4409 47.6367 61.9374 47.6367 63.7501ZM49.3945 36.5707C52.891 41.6059 52.9186 50.8532 49.3945 55.9301V36.5707ZM49.3945 58.4774C52.1132 56.004 53.7891 51.3654 53.7891 46.2499C53.7891 41.1338 52.1132 36.4959 49.3945 34.0238V33.7501H78.1214C78.4993 35.8798 80.3971 37.5667 82.793 37.9026V54.5976C80.3971 54.9335 78.4993 56.6204 78.1214 58.7501H49.3945V58.4774ZM88.0664 72.8126H49.3945V69.6876H88.0664V72.8126ZM88.0664 63.4376H49.3945V60.3126H78.9316C79.4171 60.3126 79.8105 59.9629 79.8105 59.5313C79.8105 57.6388 81.5426 56.099 83.6719 56.099C84.1574 56.099 84.5508 55.7493 84.5508 55.3177V37.1824C84.5508 36.7509 84.1574 36.4012 83.6719 36.4012C81.5428 36.4012 79.8105 34.8615 79.8105 32.9688C79.8105 32.5373 79.4171 32.1876 78.9316 32.1876H49.3945V29.0626C53.9079 29.0626 83.5629 29.0626 88.0664 29.0626V63.4376Z" fill="#4F7355"/>
<path d="M67.8516 50.9375C70.764 50.9375 73.125 48.8388 73.125 46.25C73.125 43.6612 70.764 41.5625 67.8516 41.5625C64.9391 41.5625 62.5781 43.6612 62.5781 46.25C62.5781 48.8388 64.9391 50.9375 67.8516 50.9375Z" fill="#4F7355"/>
<path d="M22.1484 50.9375C25.0609 50.9375 27.4219 48.8388 27.4219 46.25C27.4219 43.6612 25.0609 41.5625 22.1484 41.5625C19.236 41.5625 16.875 43.6612 16.875 46.25C16.875 48.8388 19.236 50.9375 22.1484 50.9375Z" fill="#4F7355"/>
<path d="M82.793 33.75H83.6719C84.1574 33.75 84.5508 33.4003 84.5508 32.9688C84.5508 32.5372 84.1574 32.1875 83.6719 32.1875H82.793C82.3075 32.1875 81.9141 32.5372 81.9141 32.9688C81.9141 33.4003 82.3075 33.75 82.793 33.75ZM83.6719 58.75H82.793C82.3075 58.75 81.9141 59.0997 81.9141 59.5312C81.9141 59.9628 82.3075 60.3125 82.793 60.3125H83.6719C84.1574 60.3125 84.5508 59.9628 84.5508 59.5312C84.5508 59.0997 84.1574 58.75 83.6719 58.75ZM6.32812 33.75H7.20703C7.69254 33.75 8.08594 33.4003 8.08594 32.9688C8.08594 32.5372 7.69254 32.1875 7.20703 32.1875H6.32812C5.84262 32.1875 5.44922 32.5372 5.44922 32.9688C5.44922 33.4003 5.84262 33.75 6.32812 33.75ZM7.20703 58.75H6.32812C5.84262 58.75 5.44922 59.0997 5.44922 59.5312C5.44922 59.9628 5.84262 60.3125 6.32812 60.3125H7.20703C7.69254 60.3125 8.08594 59.9628 8.08594 59.5312C8.08594 59.0997 7.69254 58.75 7.20703 58.75Z" fill="#4F7355"/>
</svg>
