<svg width="34" height="34" viewBox="0 0 34 34" fill="none" xmlns="http://www.w3.org/2000/svg">
<path d="M24.9155 22.2382C24.6194 21.941 24.2675 21.7052 23.88 21.5443C23.4926 21.3835 23.0772 21.3006 22.6577 21.3006C22.2382 21.3006 21.8228 21.3835 21.4353 21.5443C21.0479 21.7052 20.696 21.941 20.3999 22.2382L18.8592 23.7788C17.1246 22.6779 15.5175 21.3879 14.0674 19.9325C12.612 18.4824 11.322 16.8753 10.2211 15.1407L11.7617 13.6C12.0589 13.3039 12.2947 12.952 12.4556 12.5646C12.6164 12.1771 12.6993 11.7617 12.6993 11.3422C12.6993 10.9227 12.6164 10.5073 12.4556 10.1199C12.2947 9.73242 12.0589 9.38054 11.7617 9.08441L8.75487 6.08816C8.46292 5.79001 8.11401 5.5536 7.72888 5.39298C7.34376 5.23236 6.93027 5.1508 6.51299 5.15316C6.09275 5.15213 5.67646 5.23421 5.28806 5.39467C4.89967 5.55514 4.54683 5.79082 4.24987 6.08816L2.80487 7.52253C2.11612 8.26306 1.60209 9.14853 1.30054 10.1138C0.998998 11.0791 0.917613 12.0998 1.06237 13.1007C1.40237 17.085 4.01612 21.8769 8.04299 25.9144C12.0699 29.9519 16.9149 32.555 20.8992 32.9375C21.1965 32.9534 21.4945 32.9534 21.7917 32.9375C22.6494 32.9735 23.5057 32.838 24.3103 32.5387C25.1149 32.2395 25.8516 31.7827 26.4774 31.195L27.9117 29.75C28.2091 29.4531 28.4448 29.1002 28.6052 28.7118C28.7657 28.3234 28.8478 27.9071 28.8467 27.4869C28.8491 27.0696 28.7675 26.6561 28.6069 26.271C28.4463 25.8859 28.2099 25.537 27.9117 25.245L24.9155 22.2382ZM28.2624 5.72691C26.7858 4.24469 25.0304 3.06942 23.0974 2.26888C21.1644 1.46833 19.0921 1.05833 16.9999 1.06253C16.7181 1.06253 16.4478 1.17447 16.2486 1.37373C16.0493 1.57299 15.9374 1.84324 15.9374 2.12503C15.9374 2.40682 16.0493 2.67708 16.2486 2.87633C16.4478 3.07559 16.7181 3.18753 16.9999 3.18753C18.8236 3.18747 20.6293 3.54857 22.3128 4.25001C23.9963 4.95145 25.5242 5.97934 26.8083 7.27435C28.0925 8.56937 29.1075 10.1059 29.7947 11.7952C30.4819 13.4845 30.8278 15.2932 30.8124 17.1169C30.8124 17.3987 30.9243 17.669 31.1236 17.8682C31.3228 18.0675 31.5931 18.1794 31.8749 18.1794C32.1567 18.1794 32.4269 18.0675 32.6262 17.8682C32.8254 17.669 32.9374 17.3987 32.9374 17.1169C32.9577 15.0025 32.5546 12.9053 31.7516 10.9492C30.9487 8.99299 29.7623 7.21734 28.2624 5.72691Z" fill="#F5EDED"/>
<path d="M22.217 11.8042C22.82 12.4036 23.297 13.1175 23.62 13.9039C23.943 14.6903 24.1054 15.5334 24.0977 16.3836C24.0977 16.6654 24.2096 16.9356 24.4089 17.1349C24.6081 17.3342 24.8784 17.4461 25.1602 17.4461C25.4419 17.4461 25.7122 17.3342 25.9115 17.1349C26.1107 16.9356 26.2227 16.6654 26.2227 16.3836C26.2367 15.2584 26.0272 14.1417 25.6064 13.0981C25.1855 12.0546 24.5616 11.105 23.7709 10.3044C22.9802 9.5038 22.0384 8.86817 21.0002 8.43438C19.9619 8.00059 18.8479 7.77726 17.7227 7.77734C17.4409 7.77734 17.1706 7.88929 16.9714 8.08854C16.7721 8.2878 16.6602 8.55805 16.6602 8.83984C16.6602 9.12164 16.7721 9.39189 16.9714 9.59115C17.1706 9.7904 17.4409 9.90234 17.7227 9.90234C18.56 9.90865 19.3879 10.0799 20.159 10.4062C20.9302 10.7325 21.6295 11.2076 22.217 11.8042Z" fill="#F5EDED"/>
</svg>
