<svg width="53" height="54" viewBox="0 0 53 54" fill="none" xmlns="http://www.w3.org/2000/svg">
<path d="M39.5996 23.3819L46.7996 23.4179L43.2176 18.8999L39.5996 23.3819Z" stroke="#F6F6F6" stroke-width="1.8" stroke-linecap="round" stroke-linejoin="round"/>
<path d="M14.085 5.8501H21.7529C22.9984 5.8501 24.0117 6.86342 24.0117 8.10889V10.7729H32.04C33.8892 10.773 35.3876 12.2731 35.3877 14.1118V17.8384C35.3874 18.0845 35.1846 18.2873 34.9385 18.2876H32.6074V46.6108C32.6074 48.4593 31.1073 49.9585 29.2588 49.9585H6.57031C4.73153 49.9585 3.23145 48.46 3.23145 46.6108V18.2974H0.900391C0.654007 18.2974 0.450341 18.0935 0.450195 17.8472V14.1206C0.450357 12.273 1.95785 10.773 3.79785 10.7729H11.8262V8.10889C11.8262 6.86344 12.8395 5.85012 14.085 5.8501ZM4.13086 46.6021C4.13094 47.9562 5.22251 49.0503 6.57031 49.0503H29.2588C30.6143 49.0503 31.707 47.9575 31.707 46.6021V18.2876H4.13086V46.6021ZM3.79785 11.6636C2.4411 11.6637 1.34966 12.7667 1.34961 14.1118V17.3882H34.4971V14.1118C34.497 12.755 33.394 11.6636 32.0488 11.6636H3.79785ZM14.085 6.74951C13.3325 6.74953 12.7256 7.35638 12.7256 8.10889V10.7729H23.1123V8.10889C23.1123 7.35637 22.5055 6.74951 21.7529 6.74951H14.085Z" fill="#F6F6F6" stroke="#F6F6F6" stroke-width="0.9"/>
<path d="M9.08105 22.7883C9.32735 22.7885 9.53027 22.9922 9.53027 23.2385V44.0999C9.53027 44.3462 9.32735 44.5498 9.08105 44.55C8.83458 44.55 8.63086 44.3463 8.63086 44.0999V23.2385C8.63086 22.9921 8.83458 22.7883 9.08105 22.7883ZM14.9756 22.7883C15.2221 22.7883 15.4258 22.9921 15.4258 23.2385V44.0999C15.4258 44.3463 15.2221 44.55 14.9756 44.55C14.7231 44.55 14.5254 44.3492 14.5254 44.0999V23.2385C14.5254 22.9921 14.7291 22.7884 14.9756 22.7883ZM20.8613 22.7883C21.1078 22.7883 21.3115 22.9921 21.3115 23.2385V44.0999C21.3115 44.3463 21.1078 44.55 20.8613 44.55C20.615 44.5499 20.4121 44.3462 20.4121 44.0999V23.2385C20.4121 22.9922 20.615 22.7885 20.8613 22.7883ZM26.7568 22.7883C27.0032 22.7884 27.207 22.9921 27.207 23.2385V44.0999C27.207 44.3463 27.0032 44.55 26.7568 44.55C26.5104 44.55 26.3066 44.3463 26.3066 44.0999V23.2385C26.3066 22.9921 26.5104 22.7883 26.7568 22.7883Z" fill="#F6F6F6" stroke="#F6F6F6" stroke-width="0.9"/>
<path d="M43.5693 4.05029C46.7969 4.05029 49.4198 6.67241 49.4199 9.8999C49.4199 13.1275 46.7969 15.7505 43.5693 15.7505C40.3418 15.7504 37.7197 13.1274 37.7197 9.8999C37.7198 6.67248 40.3419 4.0504 43.5693 4.05029ZM43.5693 4.53369C40.6117 4.5338 38.21 6.93539 38.21 9.89307C38.21 12.8507 40.6117 15.2523 43.5693 15.2524C46.527 15.2524 48.9286 12.8507 48.9287 9.89307C48.9287 6.94292 46.5275 4.53369 43.5693 4.53369Z" fill="#F6F6F6" stroke="#F6F6F6" stroke-width="0.9"/>
<path d="M43.1421 6.69702C43.7793 6.54581 44.4142 6.73732 44.8491 7.19995L44.9331 7.29663C45.0186 7.40407 44.9982 7.55558 44.8989 7.6355L44.8979 7.63647C44.8038 7.7125 44.6749 7.70702 44.5903 7.63745L44.5571 7.60425C44.2405 7.2092 43.7438 7.05878 43.2632 7.17554C42.6863 7.314 42.3128 7.84046 42.3237 8.41772V8.42065C42.3283 8.60055 42.3644 8.89886 42.561 9.16479C42.774 9.4525 43.1184 9.62843 43.5864 9.64722H43.605C43.6888 9.64723 43.7421 9.65268 43.7983 9.65894H43.8003C44.706 9.75577 45.315 10.427 45.3267 11.3748V11.3757C45.3381 12.2052 44.772 12.9212 44.0229 13.0876C43.867 13.1223 43.728 13.1335 43.5757 13.1335C43.0432 13.1335 42.5336 12.9361 42.2358 12.7185C42.1318 12.6383 42.104 12.4886 42.1851 12.3699C42.2665 12.2668 42.4173 12.2416 42.5356 12.325V12.324C42.6858 12.4321 42.8969 12.5253 43.1177 12.5808C43.3427 12.6374 43.6219 12.6652 43.8999 12.6033L43.9009 12.6042C44.4758 12.4793 44.8218 11.9332 44.8218 11.3835C44.8218 11.2073 44.7935 10.9284 44.6343 10.6716C44.4813 10.4252 44.2327 10.2408 43.8882 10.1707L43.7349 10.1472L43.7251 10.1462L43.6323 10.1394L43.6245 10.1384H43.6167C43.0432 10.1137 42.6021 9.919 42.3062 9.63062C42.0121 9.34407 41.8316 8.93661 41.8257 8.42554V8.42456L41.8296 8.27026C41.8823 7.50664 42.4042 6.87904 43.1421 6.69702Z" fill="#F6F6F6" stroke="#F6F6F6" stroke-width="0.9"/>
<path d="M43.5693 12.6438C43.7078 12.6438 43.8145 12.7504 43.8145 12.8889V13.8137C43.8143 13.9449 43.7005 14.0588 43.5693 14.0588C43.4309 14.0588 43.3244 13.9521 43.3242 13.8137V12.8889C43.3242 12.7504 43.4308 12.6438 43.5693 12.6438ZM43.5693 5.73462C43.7078 5.73467 43.8145 5.84126 43.8145 5.97974V6.90454C43.8143 7.02968 43.7066 7.1418 43.5693 7.14185C43.4308 7.14185 43.3242 7.03523 43.3242 6.89673V5.97974C43.3242 5.84123 43.4308 5.73462 43.5693 5.73462Z" fill="#F6F6F6" stroke="#F6F6F6" stroke-width="0.9"/>
<path d="M43.1997 45.4499C43.1997 45.4499 43.1997 49.4999 43.1997 23.3999" stroke="#F6F6F6" stroke-width="1.8" stroke-linecap="round" stroke-linejoin="round"/>
</svg>
