<svg width="90" height="60" viewBox="0 0 90 60" fill="none" xmlns="http://www.w3.org/2000/svg">
<path d="M27.9367 10.741C27.9367 4.81963 23.2832 0 17.564 0C11.8448 0 7.19291 4.81963 7.19291 10.741C7.19291 16.6623 11.8448 21.4787 17.564 21.4787C23.2832 21.4787 27.9367 16.6623 27.9367 10.741ZM17.564 6.65583C19.7393 6.65583 21.5081 8.48879 21.5081 10.741C21.5081 12.9932 19.7393 14.8229 17.564 14.8229C15.3903 14.8229 13.6215 12.9932 13.6215 10.741C13.6215 8.48879 15.3903 6.65583 17.564 6.65583ZM3.21429 48.0793C4.98936 48.0793 6.42857 46.5908 6.42857 44.7514C6.42857 43.9529 6.51568 43.1693 6.66949 42.4041C7.10541 40.2358 8.13577 38.2361 9.69151 36.6266C11.7977 34.4459 14.5977 33.2467 17.5766 33.2467C18.3352 33.2467 19.0836 33.3279 19.8036 33.4819C20.5389 33.6391 21.2446 33.8723 21.8989 34.1826C23.5045 34.9269 25.4161 34.2086 26.1569 32.5349C26.8945 30.8645 26.182 28.8885 24.567 28.1248C22.4419 27.1206 20.0249 26.5908 17.5766 26.5908C12.8807 26.5908 8.46575 28.4823 5.14631 31.9207C1.82687 35.3559 0 39.9123 0 44.7514C0 46.5908 1.43921 48.0793 3.21429 48.0793ZM62.0633 10.741C62.0633 16.6623 66.7168 21.4787 72.436 21.4787C78.1552 21.4787 82.8071 16.6623 82.8071 10.741C82.8071 4.81963 78.1552 0 72.436 0C66.7168 0 62.0633 4.81963 62.0633 10.741ZM72.436 14.8229C70.2607 14.8229 68.4919 12.9932 68.4919 10.741C68.4919 8.48879 70.2607 6.65583 72.436 6.65583C74.6097 6.65583 76.3785 8.48879 76.3785 10.741C76.3785 12.9932 74.6097 14.8229 72.436 14.8229ZM72.4234 26.5908C69.9751 26.5908 67.5581 27.1206 65.433 28.1248C63.818 28.8885 63.1055 30.8645 63.8431 32.5349C64.5808 34.2086 66.4924 34.9301 68.1011 34.1826C68.7554 33.8723 69.4611 33.6391 70.1964 33.4819C70.9164 33.3279 71.6648 33.2467 72.4234 33.2467C75.4023 33.2467 78.2022 34.4459 80.3085 36.6266C81.8642 38.2361 82.8946 40.2358 83.3305 42.4041C83.4843 43.1693 83.5714 43.9529 83.5714 44.7514C83.5714 46.5908 85.0106 48.0793 86.7857 48.0793C88.5608 48.0793 90 46.5908 90 44.7514C90 39.9123 88.1731 35.3559 84.8537 31.9207C81.5342 28.4823 77.1193 26.5908 72.4234 26.5908ZM57.2105 14.9074C57.2105 7.9363 51.733 2.26519 45 2.26519C38.2669 2.26519 32.7895 7.9363 32.7895 14.9074C32.7895 21.8785 38.2669 27.5496 45 27.5496C51.733 27.5496 57.2105 21.8785 57.2105 14.9074ZM45 8.92103C48.1876 8.92103 50.7819 11.6055 50.7819 14.9074C50.7819 18.2093 48.1876 20.8937 45 20.8937C41.8124 20.8937 39.2181 18.2093 39.2181 14.9074C39.2181 11.6055 41.8124 8.92103 45 8.92103ZM26.9667 60C28.7412 60 30.1798 58.5089 30.1806 56.6705C30.1806 56.6698 30.1806 56.6711 30.1806 56.6705C30.1806 48.2109 36.8293 41.326 45 41.326C53.1707 41.326 59.819 48.2093 59.819 56.6688C59.819 56.6682 59.819 56.6694 59.819 56.6688C59.8198 58.5073 61.2588 59.9967 63.0333 59.9967C64.8083 59.9967 66.2476 58.5083 66.2476 56.6688C66.2476 44.5401 56.7161 34.6701 45 34.6701C33.2839 34.6701 23.7524 44.5401 23.7524 56.6721C23.7524 58.5115 25.1917 60 26.9667 60Z" fill="#47663B"/>
</svg>
